<?xml version="1.0" encoding="UTF-8"?>
<svg version="1.1" xmlns="http://www.w3.org/2000/svg" width="1627" height="864">
<path d="M0 0 C12.10422303 0.60875682 24.17581343 0.7893216 36.29457092 0.7651825 C39.49017564 0.75980886 42.68564025 0.76517755 45.88124084 0.77153015 C47.99126718 0.77086924 50.10129344 0.7695878 52.21131897 0.7676239 C53.12760574 0.76964813 54.04389252 0.77167236 54.98794556 0.77375793 C59.49864696 0.75844362 63.99547576 0.67448517 68.49862003 0.40853214 C84.41773786 -0.52224364 100.33142867 -0.51559386 116.27099919 -0.51057231 C120.38154122 -0.51036543 124.49207657 -0.51591387 128.60261536 -0.52062988 C136.62660686 -0.52887418 144.65059101 -0.53168183 152.6745864 -0.53224226 C159.20468569 -0.53272018 165.7347826 -0.53478853 172.26488113 -0.53794289 C190.83906064 -0.54673064 209.41323441 -0.55136494 227.98741601 -0.55061241 C229.4839096 -0.55055248 229.4839096 -0.55055248 231.01063538 -0.55049133 C232.5089859 -0.55043001 232.5089859 -0.55043001 234.03760614 -0.55036745 C250.22585836 -0.54996099 266.41408732 -0.55953548 282.60233282 -0.5736297 C299.2832234 -0.58803667 315.96410267 -0.59489759 332.64499962 -0.59403592 C341.98655249 -0.59370556 351.32808093 -0.5963821 360.66962814 -0.60721397 C368.62080865 -0.61637587 376.57195366 -0.61844781 384.5231372 -0.61170455 C388.56858967 -0.60846846 392.61397425 -0.60827555 396.65942001 -0.6170578 C440.33007899 -0.70590195 440.33007899 -0.70590195 460.86366272 3.8848114 C461.85680481 4.10169617 462.8499469 4.31858093 463.8731842 4.54203796 C488.2623386 10.09750999 509.57992588 21.9342044 523.43397522 43.2988739 C538.83645656 69.09047992 542.13928282 98.02792979 542.66444397 127.5801239 C542.68239014 128.55433289 542.7003363 129.52854187 542.71882629 130.53227234 C542.80594253 135.47634645 542.87214105 140.41960059 542.90907288 145.36430359 C542.93401593 147.22270587 542.95923266 149.0811045 542.98475647 150.9394989 C542.98479424 152.20408432 542.98479424 152.20408432 542.98483276 153.49421692 C543.10261549 160.5701016 544.13808249 167.61644407 549.20741272 172.8926239 C554.12666094 176.63878095 560.07201274 178.14624068 565.91990662 179.90315247 C582.46531536 184.90621266 596.44553154 190.78293076 609.42616272 202.6348114 C610.15448303 203.29352234 610.88280334 203.95223328 611.63319397 204.63090515 C631.149497 223.17699044 639.69117435 251.33327337 640.48735046 277.65791321 C640.57025965 281.65729453 640.61598498 285.65713268 640.66664124 289.6570282 C640.87232199 305.66409144 641.5718665 321.42459407 643.48866272 337.3223114 C645.90643108 357.59203983 647.91972088 378.89823497 641.76405334 398.77250671 C640.41632529 403.07261061 640.41632529 403.07261061 641.69178772 407.2519989 C642.34663147 407.99707703 643.00147522 408.74215515 643.67616272 409.5098114 C647.52740169 414.38249883 648.78807274 418.51435649 649.42616272 424.6348114 C646.54697928 426.75185805 644.98627555 427.64624228 641.36366272 427.5723114 C638.02414248 426.50650707 636.67008396 425.27943287 634.42616272 422.6348114 C633.76616272 421.9748114 633.10616272 421.3148114 632.42616272 420.6348114 C631.82481506 421.54360046 631.82481506 421.54360046 631.21131897 422.4707489 C617.89379328 442.09975502 600.56595795 452.97888719 578.64491272 460.9941864 C577.82691193 461.29396393 577.00891113 461.59374146 576.16612244 461.90260315 C567.06299347 465.1920875 557.8308816 468.01623944 548.55116272 470.7598114 C547.67708771 471.01938629 546.8030127 471.27896118 545.90245056 471.54640198 C511.21042767 481.83107392 478.6740676 486.65315034 442.36366272 483.6348114 C418.03004193 481.61896708 393.3784327 482.12634835 369.00746155 483.27201843 C340.78930265 484.57643141 313.61218183 482.65279087 285.83485413 477.75541687 C284.71452538 477.558787 284.71452538 477.558787 283.57156372 477.35818481 C281.536717 476.99899671 279.50300095 476.63341969 277.46937561 476.26737976 C269.10188091 474.88550946 260.79799298 474.48783117 252.32850647 474.4238739 C250.20545208 474.39579071 248.08240531 474.36712616 245.95936584 474.3379364 C242.67103925 474.29692691 239.38285269 474.25996617 236.09437561 474.23344421 C200.7141652 473.92460951 169.8716933 465.84271836 144.11366272 440.3457489 C143.49491272 439.69863953 142.87616272 439.05153015 142.23866272 438.3848114 C129.7876742 425.46862111 115.10264878 420.77477907 97.5415802 420.3946991 C96.73521118 420.38112366 95.92884216 420.36754822 95.09803772 420.3535614 C93.7934964 420.32594727 93.7934964 420.32594727 92.46260071 420.29777527 C89.70051644 420.23964172 86.93837048 420.18671801 84.17616272 420.1348114 C81.45681517 420.08249745 78.7375188 420.02882757 76.01826477 419.97184753 C74.33826704 419.93674918 72.65821487 419.90408735 70.97810364 419.87492371 C66.57507254 419.78407637 62.18032383 419.62855544 57.78260803 419.39529419 C46.42022303 418.79446147 35.11337421 418.51365232 23.73565674 418.59021187 C20.98099742 418.60812722 18.22639992 418.61806079 15.47169495 418.62612915 C7.6568164 418.65013674 -0.157977 418.68592146 -7.97276306 418.73075867 C-12.80159976 418.75791837 -17.63039022 418.77470755 -22.45928955 418.78562737 C-24.26732099 418.79172219 -26.07534481 418.80157445 -27.8833313 418.81570625 C-44.39640589 418.94375453 -61.37935729 418.55028526 -77.44883728 414.3848114 C-78.31194519 414.16792664 -79.1750531 413.95104187 -80.0643158 413.72758484 C-104.39974617 407.3766586 -124.47967739 394.40795203 -137.57383728 372.6348114 C-156.59813515 339.77466054 -154.89137245 300.20782145 -154.84248829 263.50136566 C-154.83735041 258.42198486 -154.842141 253.34261053 -154.84526062 248.26322937 C-154.84887794 239.74059226 -154.84416036 231.21799006 -154.83457947 222.69535828 C-154.82369929 212.90518585 -154.82722646 203.11509679 -154.83823228 193.32492638 C-154.84736938 184.85113001 -154.84855933 176.37735844 -154.84335494 167.90355873 C-154.84027024 162.87237308 -154.83972759 157.84122634 -154.84642792 152.81004333 C-154.90523979 101.68924913 -154.90523979 101.68924913 -150.32383728 81.1973114 C-150.10695251 80.20416931 -149.89006775 79.21102722 -149.66661072 78.18778992 C-144.11113869 53.79863552 -132.27444428 32.48104824 -110.90977478 18.6269989 C-77.66138931 -1.2285943 -37.69474118 -1.89595271 0 0 Z " fill="#3B103D" transform="translate(511.57383728027344,205.3651885986328)"/>
<path d="M0 0 C12.10422303 0.60875682 24.17581343 0.7893216 36.29457092 0.7651825 C39.49017564 0.75980886 42.68564025 0.76517755 45.88124084 0.77153015 C47.99126718 0.77086924 50.10129344 0.7695878 52.21131897 0.7676239 C53.12760574 0.76964813 54.04389252 0.77167236 54.98794556 0.77375793 C59.49864696 0.75844362 63.99547576 0.67448517 68.49862003 0.40853214 C84.41773786 -0.52224364 100.33142867 -0.51559386 116.27099919 -0.51057231 C120.38154122 -0.51036543 124.49207657 -0.51591387 128.60261536 -0.52062988 C136.62660686 -0.52887418 144.65059101 -0.53168183 152.6745864 -0.53224226 C159.20468569 -0.53272018 165.7347826 -0.53478853 172.26488113 -0.53794289 C190.83906064 -0.54673064 209.41323441 -0.55136494 227.98741601 -0.55061241 C229.4839096 -0.55055248 229.4839096 -0.55055248 231.01063538 -0.55049133 C232.5089859 -0.55043001 232.5089859 -0.55043001 234.03760614 -0.55036745 C250.22585836 -0.54996099 266.41408732 -0.55953548 282.60233282 -0.5736297 C299.2832234 -0.58803667 315.96410267 -0.59489759 332.64499962 -0.59403592 C341.98655249 -0.59370556 351.32808093 -0.5963821 360.66962814 -0.60721397 C368.62080865 -0.61637587 376.57195366 -0.61844781 384.5231372 -0.61170455 C388.56858967 -0.60846846 392.61397425 -0.60827555 396.65942001 -0.6170578 C440.33007899 -0.70590195 440.33007899 -0.70590195 460.86366272 3.8848114 C461.85680481 4.10169617 462.8499469 4.31858093 463.8731842 4.54203796 C488.2623386 10.09750999 509.57992588 21.9342044 523.43397522 43.2988739 C538.83645656 69.09047992 542.13928282 98.02792979 542.66444397 127.5801239 C542.68239014 128.55433289 542.7003363 129.52854187 542.71882629 130.53227234 C542.80594253 135.47634645 542.87214105 140.41960059 542.90907288 145.36430359 C542.93401593 147.22270587 542.95923266 149.0811045 542.98475647 150.9394989 C542.98479424 152.20408432 542.98479424 152.20408432 542.98483276 153.49421692 C543.10261549 160.5701016 544.13808249 167.61644407 549.20741272 172.8926239 C554.12666094 176.63878095 560.07201274 178.14624068 565.91990662 179.90315247 C582.46531536 184.90621266 596.44553154 190.78293076 609.42616272 202.6348114 C610.15448303 203.29352234 610.88280334 203.95223328 611.63319397 204.63090515 C631.149497 223.17699044 639.69117435 251.33327337 640.48735046 277.65791321 C640.57025965 281.65729453 640.61598498 285.65713268 640.66664124 289.6570282 C640.87232199 305.66409144 641.5718665 321.42459407 643.48866272 337.3223114 C645.90643108 357.59203983 647.91972088 378.89823497 641.76405334 398.77250671 C640.41632529 403.07261061 640.41632529 403.07261061 641.69178772 407.2519989 C642.34663147 407.99707703 643.00147522 408.74215515 643.67616272 409.5098114 C647.52740169 414.38249883 648.78807274 418.51435649 649.42616272 424.6348114 C646.54697928 426.75185805 644.98627555 427.64624228 641.36366272 427.5723114 C638.02414248 426.50650707 636.67008396 425.27943287 634.42616272 422.6348114 C633.76616272 421.9748114 633.10616272 421.3148114 632.42616272 420.6348114 C631.82481506 421.54360046 631.82481506 421.54360046 631.21131897 422.4707489 C617.89379328 442.09975502 600.56595795 452.97888719 578.64491272 460.9941864 C577.82691193 461.29396393 577.00891113 461.59374146 576.16612244 461.90260315 C567.06299347 465.1920875 557.8308816 468.01623944 548.55116272 470.7598114 C547.67708771 471.01938629 546.8030127 471.27896118 545.90245056 471.54640198 C511.21042767 481.83107392 478.6740676 486.65315034 442.36366272 483.6348114 C418.03004193 481.61896708 393.3784327 482.12634835 369.00746155 483.27201843 C340.78930265 484.57643141 313.61218183 482.65279087 285.83485413 477.75541687 C284.71452538 477.558787 284.71452538 477.558787 283.57156372 477.35818481 C281.536717 476.99899671 279.50300095 476.63341969 277.46937561 476.26737976 C269.10188091 474.88550946 260.79799298 474.48783117 252.32850647 474.4238739 C250.20545208 474.39579071 248.08240531 474.36712616 245.95936584 474.3379364 C242.67103925 474.29692691 239.38285269 474.25996617 236.09437561 474.23344421 C200.7141652 473.92460951 169.8716933 465.84271836 144.11366272 440.3457489 C143.49491272 439.69863953 142.87616272 439.05153015 142.23866272 438.3848114 C129.7876742 425.46862111 115.10264878 420.77477907 97.5415802 420.3946991 C96.73521118 420.38112366 95.92884216 420.36754822 95.09803772 420.3535614 C93.7934964 420.32594727 93.7934964 420.32594727 92.46260071 420.29777527 C89.70051644 420.23964172 86.93837048 420.18671801 84.17616272 420.1348114 C81.45681517 420.08249745 78.7375188 420.02882757 76.01826477 419.97184753 C74.33826704 419.93674918 72.65821487 419.90408735 70.97810364 419.87492371 C66.57507254 419.78407637 62.18032383 419.62855544 57.78260803 419.39529419 C46.42022303 418.79446147 35.11337421 418.51365232 23.73565674 418.59021187 C20.98099742 418.60812722 18.22639992 418.61806079 15.47169495 418.62612915 C7.6568164 418.65013674 -0.157977 418.68592146 -7.97276306 418.73075867 C-12.80159976 418.75791837 -17.63039022 418.77470755 -22.45928955 418.78562737 C-24.26732099 418.79172219 -26.07534481 418.80157445 -27.8833313 418.81570625 C-44.39640589 418.94375453 -61.37935729 418.55028526 -77.44883728 414.3848114 C-78.31194519 414.16792664 -79.1750531 413.95104187 -80.0643158 413.72758484 C-104.39974617 407.3766586 -124.47967739 394.40795203 -137.57383728 372.6348114 C-156.59813515 339.77466054 -154.89137245 300.20782145 -154.84248829 263.50136566 C-154.83735041 258.42198486 -154.842141 253.34261053 -154.84526062 248.26322937 C-154.84887794 239.74059226 -154.84416036 231.21799006 -154.83457947 222.69535828 C-154.82369929 212.90518585 -154.82722646 203.11509679 -154.83823228 193.32492638 C-154.84736938 184.85113001 -154.84855933 176.37735844 -154.84335494 167.90355873 C-154.84027024 162.87237308 -154.83972759 157.84122634 -154.84642792 152.81004333 C-154.90523979 101.68924913 -154.90523979 101.68924913 -150.32383728 81.1973114 C-150.10695251 80.20416931 -149.89006775 79.21102722 -149.66661072 78.18778992 C-144.11113869 53.79863552 -132.27444428 32.48104824 -110.90977478 18.6269989 C-77.66138931 -1.2285943 -37.69474118 -1.89595271 0 0 Z M-62.57383728 45.6348114 C-62.57383728 131.4348114 -62.57383728 217.2348114 -62.57383728 305.6348114 C-35.51383728 305.6348114 -8.45383728 305.6348114 19.42616272 305.6348114 C19.42616272 276.5948114 19.42616272 247.5548114 19.42616272 217.6348114 C23.05616272 217.6348114 26.68616272 217.6348114 30.42616272 217.6348114 C34.01998004 217.15428478 34.01998004 217.15428478 37.17616272 216.3223114 C38.20225647 216.07867859 39.22835022 215.83504578 40.28553772 215.58403015 C42.68532795 214.85872042 44.83781859 214.07176224 47.12245178 213.07548523 C48.21267639 212.60006287 49.302901 212.1246405 50.42616272 211.6348114 C49.77379449 218.99201334 49.11595099 226.34871263 48.45472717 233.7051239 C48.23153324 236.19492648 48.00948258 238.68483188 47.78871155 241.17485046 C46.52763301 255.38855573 45.19925953 269.57682038 43.35626221 283.72901917 C42.43028233 291.20230086 42.42616272 297.95768894 42.42616272 305.6348114 C120.14116272 306.1298114 120.14116272 306.1298114 199.42616272 306.6348114 C198.10616272 309.6048114 196.78616272 312.5748114 195.42616272 315.6348114 C194.12654612 322.86785002 195.251264 329.08807881 198.87928772 335.4473114 C202.24218541 340.2029243 205.96068694 343.11027958 211.36366272 345.1973114 C216.14853292 347.36387112 217.9165517 351.33312489 220.41712952 355.76689148 C223.53203222 361.15845199 227.35160205 365.38231999 233.43397522 367.2519989 C240.35512486 368.5819453 245.02639937 367.52849956 251.15663147 364.18559265 C257.00738204 360.1877476 258.63939301 355.31924453 260.42616272 348.6348114 C261.05595032 348.60975525 261.68573792 348.5846991 262.33460999 348.55888367 C265.21945613 348.44202713 268.10404667 348.3197112 270.98866272 348.1973114 C271.97930725 348.157995 272.96995178 348.11867859 273.99061584 348.07817078 C285.50523908 347.84633967 285.50523908 347.84633967 295.17616272 342.1348114 C300.18209492 337.71616733 300.18209492 337.71616733 303.42616272 336.6348114 C303.36428772 338.3363739 303.36428772 338.3363739 303.30116272 340.0723114 C303.34325688 351.96391099 308.39825299 358.60801063 316.01210022 367.36528015 C320.51960031 371.60291374 324.47243685 373.04048253 330.61366272 372.8848114 C331.63846741 372.86934265 332.66327209 372.8538739 333.71913147 372.8379364 C336.522509 372.73844895 336.522509 372.73844895 339.42616272 371.6348114 C341.65190607 371.41029682 343.88197791 371.22698263 346.11366272 371.0723114 C347.882901 370.94662781 347.882901 370.94662781 349.68788147 370.81840515 C350.59151428 370.75781921 351.49514709 370.69723328 352.42616272 370.6348114 C352.48674866 369.80336609 352.54733459 368.97192078 352.60975647 368.11528015 C352.69354553 367.02860046 352.77733459 365.94192078 352.86366272 364.8223114 C352.94487366 363.74336609 353.02608459 362.66442078 353.10975647 361.55278015 C353.42616272 358.6348114 353.42616272 358.6348114 354.42616272 355.6348114 C354.86280955 349.30343243 353.71690032 344.52527951 351.42616272 338.6348114 C352.74616272 338.6348114 354.06616272 338.6348114 355.42616272 338.6348114 C355.37975647 339.4804364 355.33335022 340.3260614 355.28553772 341.1973114 C354.98166886 350.74747541 356.19909325 356.26688959 362.55116272 363.3848114 C370.16966479 370.37910847 378.72411289 371.41499151 388.72694397 371.02153015 C402.6771689 370.08876886 416.26989769 366.17838896 429.42616272 361.6348114 C430.18719299 361.37345398 430.94822327 361.11209656 431.73231506 360.84281921 C440.22782228 358.09625811 440.22782228 358.09625811 448.42616272 354.6348114 C448.56731506 355.73309265 448.56731506 355.73309265 448.71131897 356.8535614 C450.20982275 362.68380563 455.04978756 367.10817039 460.00428772 370.2910614 C473.76566926 377.37776088 488.14973652 374.96648278 502.51991272 370.7207489 C509.92933874 368.32243469 517.18127269 365.48602619 524.42616272 362.6348114 C524.50092834 363.27547546 524.57569397 363.91613953 524.65272522 364.57621765 C525.63467682 371.03591889 527.35700245 375.36604486 532.42616272 379.6348114 C536.09502333 382.16448241 539.88814062 381.86518813 544.17616272 381.7598114 C545.22223694 381.74627625 545.22223694 381.74627625 546.28944397 381.73246765 C548.0018323 381.70901028 549.71404276 381.67314245 551.42616272 381.6348114 C550.90667053 382.0473114 550.38717834 382.4598114 549.85194397 382.8848114 C541.64503692 389.68091928 536.36605002 397.61138324 535.10585022 408.3691864 C534.79724092 415.8169576 536.14596225 421.0280423 541.19178772 426.57621765 C548.5693564 433.53262591 555.21413478 435.13823236 565.22010803 435.05473328 C580.53712317 434.50136265 593.82304241 427.26218788 604.23085022 416.2519989 C611.21790125 407.92224056 615.06457862 399.4594055 614.79335022 388.47465515 C613.88912779 381.48136042 610.61009205 376.24373741 605.30116272 371.6973114 C595.49992065 364.87345814 584.8641466 365.24732638 573.42616272 365.6348114 C573.95725647 365.06633484 574.48835022 364.49785828 575.03553772 363.91215515 C581.60890155 356.72703666 586.87491287 350.39134785 586.70350647 340.24028015 C585.57322916 329.62204121 582.63533719 320.06326452 574.43788147 312.89653015 C567.43834568 307.37335596 561.91605598 306.24778833 553.11366272 306.2598114 C552.14412659 306.25852234 551.17459045 306.25723328 550.17567444 306.25590515 C541.48985146 306.38180738 533.66517362 307.99077352 525.42616272 310.6348114 C525.91987366 309.99414734 526.41358459 309.35348328 526.92225647 308.69340515 C530.6732886 303.62913441 533.28748793 300.01385193 533.42616272 293.6348114 C534.27694397 293.37957703 535.12772522 293.12434265 536.00428772 292.8613739 C553.37574793 286.63461761 568.34289983 273.91463732 576.29725647 257.33403015 C579.80733276 248.9414256 578.96110366 241.4995419 575.61756897 233.14653015 C572.58086447 226.74455967 567.78259204 222.67006139 561.42616272 219.6348114 C545.38831914 214.09516978 527.69100199 218.19819758 512.48695374 224.42240906 C504.73676974 227.5652159 497.96405963 229.29458927 489.55116272 229.3223114 C488.71286926 229.32907898 487.87457581 229.33584656 487.01087952 229.34281921 C481.80280361 229.18743369 479.24761274 228.47353349 475.42616272 224.6348114 C474.79530621 221.34711075 474.79530621 221.34711075 474.78692627 217.35826111 C474.77439568 216.25935295 474.77439568 216.25935295 474.76161194 215.13824463 C474.73960732 212.67470627 474.75334715 210.21265141 474.76673889 207.74906921 C474.75824853 205.95636758 474.74756927 204.16367518 474.73487568 202.37099838 C474.70690995 197.56644091 474.70893784 192.76233187 474.71712494 187.9577179 C474.7202762 183.45071477 474.69645037 178.94401281 474.67481995 174.4370575 C474.6272944 161.25304536 474.62313372 148.06890579 474.61366272 134.8848114 C474.55178772 105.4323114 474.48991272 75.9798114 474.42616272 45.6348114 C414.03616272 45.6348114 353.64616272 45.6348114 291.42616272 45.6348114 C291.09616272 49.2648114 290.76616272 52.8948114 290.42616272 56.6348114 C289.55475647 56.16430359 288.68335022 55.69379578 287.78553772 55.20903015 C274.68960739 48.29929384 261.96001692 45.45380342 247.16870117 45.51455688 C245.99947934 45.51327525 245.99947934 45.51327525 244.80663687 45.51196772 C242.22267533 45.51033466 239.63878028 45.5157983 237.05482483 45.52128601 C235.19145204 45.52156838 233.32807914 45.52140918 231.46470642 45.52084351 C226.42613404 45.52055747 221.38758564 45.5264229 216.34901881 45.53341746 C211.07595235 45.53968324 205.80288529 45.54025735 200.52981567 45.54144287 C190.55343213 45.54454669 180.57705959 45.55274727 170.60068089 45.56279236 C159.23914207 45.573983 147.87760272 45.57947138 136.51605976 45.5844878 C113.15275444 45.59493069 89.78945966 45.61271397 66.42616272 45.6348114 C65.76616272 51.9048114 65.10616272 58.1748114 64.42616272 64.6348114 C62.11616272 62.6548114 59.80616272 60.6748114 57.42616272 58.6348114 C24.76019121 34.43425271 -28.88051039 45.6348114 -62.57383728 45.6348114 Z " fill="#000000" transform="translate(511.57383728027344,205.3651885986328)"/>
<path d="M0 0 C24.75 0 49.5 0 75 0 C77.24963463 14.62262512 77.24963463 14.62262512 77.77441406 20.484375 C77.83347648 21.13090625 77.89253889 21.7774375 77.95339108 22.4435606 C78.14453911 24.54538887 78.33006752 26.64767152 78.515625 28.75 C78.65277381 30.26751852 78.79034322 31.78499908 78.92829895 33.30244446 C79.22066005 36.5248194 79.5107962 39.74738308 79.79910278 42.97012329 C80.56782213 51.55785548 81.35278449 60.14411461 82.13671875 68.73046875 C82.25508245 70.02882691 82.25508245 70.02882691 82.37583733 71.35341454 C83.86511171 87.68060904 85.4404834 103.99793592 87.0625 120.3125 C87.54589859 125.18746774 88.02884127 130.06248062 88.51171875 134.9375 C88.63111816 136.14243607 88.75051758 137.34737213 88.87353516 138.58882141 C90.25843355 152.5820079 91.62137433 166.57727368 92.96676636 180.5743103 C93.23587649 183.37252513 93.5068552 186.17054868 93.77957153 188.96841431 C94.15681023 192.83921213 94.5279251 196.71058348 94.8984375 200.58203125 C95.01061111 201.72490601 95.12278473 202.86778076 95.23835754 204.04528809 C95.33936264 205.11162476 95.44036774 206.17796143 95.54443359 207.27661133 C95.67717178 208.6527636 95.67717178 208.6527636 95.81259155 210.05671692 C96.04442099 213.69763961 96 217.3517041 96 221 C82.14 221 68.28 221 54 221 C51.70061728 202.60493827 51.70061728 202.60493827 51.375 194 C51.25125 191.03 51.1275 188.06 51 185 C42.09 185 33.18 185 24 185 C24.04125 187.041875 24.0825 189.08375 24.125 191.1875 C23.98369914 201.14921052 22.94455574 211.08216471 22 221 C7.81 221 -6.38 221 -21 221 C-21 208.62596194 -21 208.62596194 -20.43676758 203.15063477 C-20.31256943 201.91583878 -20.18837128 200.68104279 -20.06040955 199.40882874 C-19.92316971 198.09957932 -19.78592987 196.7903299 -19.64453125 195.44140625 C-19.50079344 194.03064612 -19.35758292 192.61983218 -19.21485901 191.20896912 C-18.91108362 188.21540709 -18.60406264 185.22220392 -18.29437256 182.22924805 C-17.8051072 177.49912861 -17.32381469 172.76821983 -16.84423828 168.03710938 C-16.68206883 166.43777456 -16.51989842 164.83843984 -16.35772705 163.23910522 C-16.23736462 162.05185411 -16.23736462 162.05185411 -16.11457062 160.84061813 C-15.87090641 158.43956019 -15.62655713 156.03857285 -15.38201904 153.63760376 C-14.00355439 140.09582324 -12.67201287 126.54983495 -11.375 113 C-11.27653778 111.97332214 -11.17807556 110.94664429 -11.07662964 109.88885498 C-9.47380276 93.15837341 -7.92042235 76.42336772 -6.375 59.6875 C-5.58405011 51.12493361 -4.79296668 42.56237989 -4 34 C-3.91665405 33.09979126 -3.83330811 32.19958252 -3.74743652 31.27209473 C-3.31571588 26.61516289 -2.88054205 21.95858725 -2.43829346 17.30264282 C-2.25644462 15.38061561 -2.07810883 13.45825702 -1.89990234 11.53588867 C-1.74062256 9.8726355 -1.74062256 9.8726355 -1.578125 8.17578125 C-1.48950195 7.23645752 -1.40087891 6.29713379 -1.30957031 5.3293457 C-1 3 -1 3 0 0 Z " fill="#FAF9FA" transform="translate(596,271)"/>
<path d="M0 0 C80.33333333 0 80.33333333 0 92.265625 11.109375 C106.34962206 26.2366311 108.39864624 47.34925137 108.3125 67.1875 C108.30926727 68.20372437 108.30926727 68.20372437 108.30596924 69.24047852 C108.20743919 88.59337391 106.73496553 109.43579958 92.36328125 123.9765625 C78.49104954 135.85394436 61.61264721 134 44 134 C44 162.71 44 191.42 44 221 C29.48 221 14.96 221 0 221 C0 148.07 0 75.14 0 0 Z " fill="#FDFDFE" transform="translate(468,271)"/>
<path d="M0 0 C1.57454956 -0.05849121 1.57454956 -0.05849121 3.1809082 -0.11816406 C10.81740994 -0.14472371 16.24089475 1.66775277 22.1875 6.5625 C23.75 9.4375 23.75 9.4375 24.1875 12.5625 C24.29191406 13.2740625 24.39632812 13.985625 24.50390625 14.71875 C24.774078 16.66125067 24.98569429 18.61171143 25.1875 20.5625 C25.56519531 20.05460937 25.94289063 19.54671875 26.33203125 19.0234375 C31.81362415 12.16823701 38.31403218 7.33606632 47.125 5.9375 C50.1875 6.5625 50.1875 6.5625 52.625 8.0625 C54.81337576 11.56390122 54.80581474 14.59002267 54.1875 18.5625 C52.79732421 22.32225191 50.97261985 25.82202314 49.125 29.375 C37.36157183 51.94942552 37.36157183 51.94942552 32.1875 76.5625 C32.51878906 76.12421875 32.85007812 75.6859375 33.19140625 75.234375 C48.3619241 56.52787179 72.13710964 44.34917427 92.83056641 32.87011719 C94.92767119 31.70665197 97.01691946 30.53027562 99.10546875 29.3515625 C106.22123584 25.39155003 113.52719692 21.98458497 121 18.75 C121.85980469 18.37657471 122.71960938 18.00314941 123.60546875 17.6184082 C131.26688192 14.37335772 139.0633159 11.11900189 147.5 11.1875 C148.46550781 11.17976563 149.43101562 11.17203125 150.42578125 11.1640625 C153.68118729 11.63372504 155.54594291 12.62566124 158.1875 14.5625 C161.05541707 18.8643756 160.76801471 22.51422651 160.1875 27.5625 C157.88565423 35.81882105 151.6686749 45.23129348 144.1875 49.5625 C141.375 49.3125 141.375 49.3125 139.1875 48.5625 C139.32358839 42.30243421 141.77525703 39.08027704 145.46484375 34.140625 C147.8913555 30.50911082 149.12055759 26.76930151 150.1875 22.5625 C142.82507586 24.4571193 136.14932178 27.2475797 129.3125 30.54492188 C126.84080606 31.72851796 124.35814194 32.88749253 121.875 34.046875 C95.16489009 46.57801695 65.81780077 60.93652834 45.1875 82.5625 C53.21704651 82.77793707 60.91907502 82.14217476 68.87109375 81.06640625 C70.6362307 80.83690529 70.6362307 80.83690529 72.43702698 80.60276794 C76.16725178 80.11677875 79.89615491 79.62145459 83.625 79.125 C87.35044877 78.63360719 91.07614947 78.14428316 94.80226135 77.65794373 C97.11009467 77.35625101 99.41753076 77.0514969 101.72447205 76.74305725 C112.56725571 75.31664373 123.37382402 74.36703291 134.3125 74.25 C135.67955078 74.20649414 135.67955078 74.20649414 137.07421875 74.16210938 C143.65661583 74.10124795 149.46630884 75.14136882 155.1875 78.5625 C158.92408957 82.74517192 158.70021599 86.21862819 158.515625 91.6640625 C157.9293222 96.84307056 155.8586946 99.12109465 152 102.44921875 C132.05297296 118.03283362 97.18484518 130.33390059 71.70703125 128.96484375 C67.57506715 128.30501072 65.9237863 127.84604356 63.1875 124.5625 C62.140278 120.35164229 62.21172669 116.5297217 64.16015625 112.6015625 C72.40683465 101.97464748 91.24728511 92.44731934 104.578125 90.73046875 C116.93285809 89.93517905 116.93285809 89.93517905 120.1875 91.5625 C119.8575 93.2125 119.5275 94.8625 119.1875 96.5625 C116.2175 96.5625 113.2475 96.5625 110.1875 96.5625 C110.1875 97.2225 110.1875 97.8825 110.1875 98.5625 C109.37667969 98.81902344 108.56585937 99.07554687 107.73046875 99.33984375 C98.8755179 102.40145074 93.10884385 106.19597329 86.1875 112.5625 C94.94240161 111.37656918 103.07838351 109.27302933 111.4375 106.4375 C112.61248047 106.04224121 113.78746094 105.64698242 114.99804688 105.23974609 C131.00827318 100.29927065 131.00827318 100.29927065 144.1875 90.5625 C144.1875 89.9025 144.1875 89.2425 144.1875 88.5625 C126.64284176 88.24542786 109.74929999 89.33976659 92.46801758 92.37939453 C77.8101514 94.89199008 62.82176661 96.78074017 47.9375 96.9375 C47.24205078 96.95127686 46.54660156 96.96505371 45.83007812 96.97924805 C41.0078974 96.93444334 37.40563191 95.87339045 33.1875 93.5625 C30.75 90.875 30.75 90.875 29.1875 88.5625 C26.25357042 99.87908552 23.89786928 110.80586642 25.1875 122.5625 C25.8475 123.2225 26.5075 123.8825 27.1875 124.5625 C26.8125 127.1875 26.8125 127.1875 26.1875 129.5625 C23.125 130.5625 23.125 130.5625 19.1875 130.5625 C15.84669843 127.79928299 13.12833719 124.44417437 11.1875 120.5625 C11.06147946 118.46118079 11.0117078 116.35506212 11 114.25 C10.98582031 113.11949219 10.97164062 111.98898437 10.95703125 110.82421875 C11.81532177 82.59912381 22.44246299 54.32616828 33.1875 28.5625 C32.74019531 28.9234375 32.29289063 29.284375 31.83203125 29.65625 C26.85984424 33.4728541 26.85984424 33.4728541 23.375 33.9375 C21.1875 33.5625 21.1875 33.5625 19.1875 32.5625 C18.76339844 33.05878906 18.33929687 33.55507813 17.90234375 34.06640625 C16.01718318 36.24987794 14.10538748 38.40774195 12.1875 40.5625 C11.70539063 41.12453125 11.22328125 41.6865625 10.7265625 42.265625 C-4.9172853 59.31659139 -29.75519373 69.65318787 -49.93359375 80.06640625 C-50.78163574 80.51000488 -51.62967773 80.95360352 -52.50341797 81.41064453 C-54.8125 82.5625 -54.8125 82.5625 -58.41015625 83.96484375 C-61.22744077 85.44442568 -61.22744077 85.44442568 -61.6875 89.25 C-61.72875 90.343125 -61.77 91.43625 -61.8125 92.5625 C-61.18384033 92.55202637 -60.55518066 92.54155273 -59.9074707 92.53076172 C-19.91166339 91.95275591 -19.91166339 91.95275591 -6.8125 104.5625 C-5.15071358 106.55972823 -3.62411382 108.59962455 -2.1328125 110.7265625 C-0.56511638 112.90649498 1.21683557 114.74342514 3.1875 116.5625 C-2.85571033 114.70305067 -8.96832081 112.45861946 -14.25 108.9375 C-23.78174654 103.8229043 -35.96797257 105.33468641 -46.4375 105.4375 C-48.22265123 105.44754897 -50.00780794 105.45667143 -51.79296875 105.46484375 C-56.13294931 105.4867075 -60.47266332 105.52113185 -64.8125 105.5625 C-64.86148438 106.51511719 -64.91046875 107.46773437 -64.9609375 108.44921875 C-65.03570313 109.70347656 -65.11046875 110.95773437 -65.1875 112.25 C-65.25710938 113.49136719 -65.32671875 114.73273438 -65.3984375 116.01171875 C-65.77672094 119.25567772 -66.43229976 121.62817185 -67.8125 124.5625 C-70 125.0625 -70 125.0625 -72.8125 124.5625 C-74.81849966 122.07861677 -76.27845853 119.35327545 -77.8125 116.5625 C-78.3075 116.0675 -78.3075 116.0675 -78.8125 115.5625 C-78.88429964 114.04321962 -78.89642007 112.52082518 -78.875 111 C-78.86597656 110.17371094 -78.85695313 109.34742188 -78.84765625 108.49609375 C-78.83605469 107.85800781 -78.82445312 107.21992187 -78.8125 106.5625 C-79.8025 106.624375 -80.7925 106.68625 -81.8125 106.75 C-86.79687159 106.75 -91.60401289 105.34452063 -95.51171875 102.19140625 C-97.38034843 99.85141053 -97.40843737 97.59051762 -97.28295898 94.67089844 C-96.40489415 90.73578274 -93.7569204 88.1934735 -90.8125 85.5625 C-87.87803041 83.8194921 -84.79217562 82.47291159 -81.6875 81.0625 C-74.86569326 77.71037355 -74.86569326 77.71037355 -70.75 71.5859375 C-69.66810806 67.9665791 -69.12378655 64.32806313 -68.8125 60.5625 C-70.4625 60.5625 -72.1125 60.5625 -73.8125 60.5625 C-73.8125 61.2225 -73.8125 61.8825 -73.8125 62.5625 C-77.54160066 62.6207462 -81.27058364 62.65617917 -85 62.6875 C-86.05509766 62.70425781 -87.11019531 62.72101563 -88.19726562 62.73828125 C-89.21884766 62.74472656 -90.24042969 62.75117188 -91.29296875 62.7578125 C-92.69905396 62.77352295 -92.69905396 62.77352295 -94.13354492 62.78955078 C-99.28901135 62.35260703 -102.49045491 60.47776742 -105.8125 56.5625 C-107.1989909 52.4030273 -107.69014803 48.80139803 -106.046875 44.609375 C-97.0515478 28.51914184 -74.16903234 20.12046739 -57.8125 13.5625 C-57.14476562 13.29453613 -56.47703125 13.02657227 -55.7890625 12.75048828 C-46.61866519 9.11175544 -37.38271993 5.99835914 -27.8125 3.5625 C-26.16507813 3.11197266 -26.16507813 3.11197266 -24.484375 2.65234375 C-16.33817823 0.68885462 -8.3588654 0.16887833 0 0 Z " fill="#ED0673" transform="translate(821.8125,430.4375)"/>
<path d="M0 0 C84.21568627 0 84.21568627 0 97 12 C110.24202295 26.17804952 109.70439767 45.50229832 109.48828125 63.62890625 C109.47893333 65.95872735 109.4718266 68.28855842 109.46684265 70.61839294 C109.44792871 76.69298367 109.3989652 82.76695812 109.34332275 88.84130859 C109.29179042 95.06274077 109.26925662 101.28427441 109.24414062 107.50585938 C109.19082909 119.67084081 109.10570937 131.83536877 109 144 C107.78111084 144.26645325 106.56222168 144.53290649 105.30639648 144.80743408 C103.68210729 145.16481877 102.05784092 145.52230719 100.43359375 145.87988281 C99.63320679 146.05456085 98.83281982 146.22923889 98.00817871 146.40921021 C91.24088141 147.90255476 84.62980009 149.72808453 78 151.75 C75.93819406 152.37209662 73.87572774 152.99201022 71.8125 153.609375 C70.93207031 153.87717773 70.05164063 154.14498047 69.14453125 154.42089844 C67 155 67 155 65 155 C64.99191315 153.71484497 64.98382629 152.42968994 64.97549438 151.10559082 C64.8979397 138.98189147 64.81017675 126.85830304 64.71247292 114.73474884 C64.66257159 108.5022249 64.61624086 102.26971741 64.578125 96.03710938 C64.54119456 90.01996867 64.49481328 84.00296762 64.44193649 77.98594666 C64.42343381 75.69272822 64.4083107 73.39947989 64.39665604 71.10621643 C64.3797231 67.88902551 64.35067065 64.67215155 64.31884766 61.45507812 C64.31668747 60.51136353 64.31452728 59.56764893 64.31230164 58.59533691 C64.2428341 53.08155135 63.82091038 48.23156538 62 43 C57.09242476 38.76007327 57.09242476 38.76007327 45 39 C45 80.25 45 121.5 45 164 C34.605 169.445 34.605 169.445 24 175 C10.14294762 184.37186206 10.14294762 184.37186206 1 198 C0.67 198 0.34 198 0 198 C0 132.66 0 67.32 0 0 Z " fill="#F0EFF0" transform="translate(700,271)"/>
<path d="M0 0 C29.37 0 58.74 0 89 0 C89 14.19 89 28.38 89 43 C74.48 43 59.96 43 45 43 C45 57.19 45 71.38 45 86 C58.53 86 72.06 86 86 86 C86 99.53 86 113.06 86 127 C72.47 127 58.94 127 45 127 C45 134.59 45 142.18 45 150 C31.92778725 153.55223173 31.92778725 153.55223173 23.87207031 149.47314453 C17.5995452 146.31788392 12.31673883 144.22187022 5.171875 144.0703125 C3 144 3 144 0 143 C0 95.81 0 48.62 0 0 Z " fill="#D3D0D4" transform="translate(822,271)"/>
<path d="M0 0 C14.85 0 29.7 0 45 0 C45 51.15 45 102.3 45 155 C42.03 155.33 39.06 155.66 36 156 C32.43308011 156.90126285 32.43308011 156.90126285 29 158.125 C28.06546997 158.44561401 28.06546997 158.44561401 27.11206055 158.77270508 C17.90552803 161.99857576 8.72506682 165.63746659 0 170 C0 113.9 0 57.8 0 0 Z " fill="#A199A2" transform="translate(922,271)"/>
<path d="M0 0 C0.96550781 -0.00773437 1.93101562 -0.01546875 2.92578125 -0.0234375 C6.18118729 0.44622504 8.04594291 1.43816124 10.6875 3.375 C13.55541707 7.6768756 13.26801471 11.32672651 12.6875 16.375 C10.38565423 24.63132105 4.1686749 34.04379348 -3.3125 38.375 C-6.125 38.125 -6.125 38.125 -8.3125 37.375 C-8.17641161 31.11493421 -5.72474297 27.89277704 -2.03515625 22.953125 C0.3913555 19.32161082 1.62055759 15.58180151 2.6875 11.375 C-4.67492414 13.2696193 -11.35067822 16.0600797 -18.1875 19.35742188 C-20.65919394 20.54101796 -23.14185806 21.69999253 -25.625 22.859375 C-52.33510991 35.39051695 -81.68219923 49.74902834 -102.3125 71.375 C-94.28295349 71.59043707 -86.58092498 70.95467476 -78.62890625 69.87890625 C-76.8637693 69.64940529 -76.8637693 69.64940529 -75.06297302 69.41526794 C-71.33274822 68.92927875 -67.60384509 68.43395459 -63.875 67.9375 C-60.14955123 67.44610719 -56.42385053 66.95678316 -52.69773865 66.47044373 C-50.38990533 66.16875101 -48.08246924 65.8639969 -45.77552795 65.55555725 C-34.93274429 64.12914373 -24.12617598 63.17953291 -13.1875 63.0625 C-12.27613281 63.03349609 -11.36476563 63.00449219 -10.42578125 62.97460938 C-3.84338417 62.91374795 1.96630884 63.95386882 7.6875 67.375 C11.42408957 71.55767192 11.20021599 75.03112819 11.015625 80.4765625 C10.4293222 85.65557056 8.3586946 87.93359465 4.5 91.26171875 C-15.44702704 106.84533362 -50.31515482 119.14640059 -75.79296875 117.77734375 C-79.92493285 117.11751072 -81.5762137 116.65854356 -84.3125 113.375 C-85.359722 109.16414229 -85.28827331 105.3422217 -83.33984375 101.4140625 C-75.09316535 90.78714748 -56.25271489 81.25981934 -42.921875 79.54296875 C-30.56714191 78.74767905 -30.56714191 78.74767905 -27.3125 80.375 C-27.6425 82.025 -27.9725 83.675 -28.3125 85.375 C-31.2825 85.375 -34.2525 85.375 -37.3125 85.375 C-37.3125 86.035 -37.3125 86.695 -37.3125 87.375 C-38.12332031 87.63152344 -38.93414063 87.88804687 -39.76953125 88.15234375 C-48.6244821 91.21395074 -54.39115615 95.00847329 -61.3125 101.375 C-52.55759839 100.18906918 -44.42161649 98.08552933 -36.0625 95.25 C-34.88751953 94.85474121 -33.71253906 94.45948242 -32.50195312 94.05224609 C-16.49172682 89.11177065 -16.49172682 89.11177065 -3.3125 79.375 C-3.3125 78.715 -3.3125 78.055 -3.3125 77.375 C-20.85715824 77.05792786 -37.75070001 78.15226659 -55.03198242 81.19189453 C-69.6898486 83.70449008 -84.67823339 85.59324017 -99.5625 85.75 C-100.60567383 85.77066528 -100.60567383 85.77066528 -101.66992188 85.79174805 C-107.66701161 85.73602682 -112.27300688 84.15955648 -116.8125 80.1875 C-118.46693322 77.08543772 -118.52686549 75.10104224 -118.0625 71.6328125 C-109.19094698 44.92574144 -63.21423296 25.6536337 -40.4765625 13.95263672 C-12.29338057 -0.09981094 -12.29338057 -0.09981094 0 0 Z " fill="#EE0673" transform="translate(969.3125,441.625)"/>
<path d="M0 0 C2.85408734 2.70387221 3.86700063 4.32170319 4.625 8.1875 C2.99733796 18.11623843 -4.24411278 25.54389556 -12.1015625 31.25390625 C-23.28647098 38.92355778 -34.41972784 44.7181628 -48.28125 42.34375 C-49.68898388 42.07002397 -51.0952708 41.78874989 -52.5 41.5 C-53.22703125 41.35691406 -53.9540625 41.21382813 -54.703125 41.06640625 C-56.47009071 40.71766302 -58.23525309 40.35980277 -60 40 C-60 39.67 -60 39.34 -60 39 C-58.7625 38.7525 -57.525 38.505 -56.25 38.25 C-52.48560327 37.3289242 -50.46922107 36.08652634 -48 33 C-47.34 33.391875 -46.68 33.78375 -46 34.1875 C-42.15177313 35.22972811 -40.32131681 34.2885332 -36.76953125 32.7265625 C-35 32 -35 32 -33 32 C-32.67 31.01 -32.34 30.02 -32 29 C-30.3389601 28.31943504 -28.67121131 27.6551908 -27 27 C-21.38342152 22.61204806 -16.3434539 17.64649007 -12 12 C-33.14479902 12.07354713 -58.65505443 23.26325117 -74 37.6875 C-75.78131221 39.74714225 -76.97749145 41.49020629 -78 44 C-69.93110905 46.52890851 -62.22705587 46.08892592 -53.84765625 45.83398438 C-52.76871094 45.81529297 -51.68976562 45.79660156 -50.578125 45.77734375 C-49.60262695 45.74890381 -48.62712891 45.72046387 -47.62207031 45.69116211 C-44.50918457 46.0578102 -43.19379246 46.78249941 -41 49 C-40.23729039 53.02155978 -40.16853396 55.38670768 -42.046875 59.03125 C-47.39571869 66.42037427 -54.6524147 72.4061741 -61.38427734 78.50244141 C-62.74359848 79.76235012 -64.04539468 81.08391843 -65.33203125 82.41796875 C-67 84 -67 84 -69 84 C-69.2475 84.556875 -69.495 85.11375 -69.75 85.6875 C-71 88 -71 88 -72.8125 90.25 C-76.96103433 95.4653003 -80.48750516 100.16673545 -81 107 C-67.20256613 106.2474127 -54.16645506 100.75386184 -41.375 95.9375 C-12.37426453 85.0776586 -12.37426453 85.0776586 2 87 C4.84609927 88.42304963 6.75514195 89.75514195 9 92 C9.125 94.625 9.125 94.625 9 97 C7.1875 97.6875 7.1875 97.6875 5 98 C4.60167969 97.49726562 4.20335937 96.99453125 3.79296875 96.4765625 C1.97781839 94.65398304 1.97781839 94.65398304 -1.1796875 95.07421875 C-2.39914062 95.27660156 -3.61859375 95.47898437 -4.875 95.6875 C-6.08929687 95.87699219 -7.30359375 96.06648437 -8.5546875 96.26171875 C-11.57960166 96.90991464 -14.18439377 97.74207707 -17 99 C-17 99.66 -17 100.32 -17 101 C-27.52682771 105.60470294 -38.13496384 109.89368602 -48.9375 113.8125 C-49.95384521 114.1849585 -50.97019043 114.55741699 -52.01733398 114.94116211 C-76.1929605 123.6023465 -76.1929605 123.6023465 -87.375 119.875 C-91.38769806 117.0087871 -94.46813647 114.67781724 -95.44921875 109.73828125 C-95.74988573 103.13397546 -93.95987554 97.83005788 -91 92 C-90.59523438 91.18273437 -90.19046875 90.36546875 -89.7734375 89.5234375 C-83.88143175 79.09427224 -73.94777535 68.63185023 -64 62 C-65.71528852 60.28471148 -68.15839884 60.50385268 -70.5 60.1875 C-77.45140338 59.06203469 -83.48387716 57.57902591 -88.5 52.4375 C-91.51803922 47.53318627 -91.8530291 42.61159342 -91 37 C-89.4918925 33.82836935 -87.43618703 31.50739083 -85 29 C-84.39285156 28.35417969 -83.78570313 27.70835937 -83.16015625 27.04296875 C-68.14556595 12.43184153 -20.0228398 -13.82529415 0 0 Z " fill="#ED0673" transform="translate(1069,442)"/>
<path d="M0 0 C4.77436715 4.49678767 7.30017624 10.15321801 7.75 16.6875 C7.17722722 26.66763183 1.91608079 34.82212253 -4.8671875 41.828125 C-10.03781817 46.29928043 -15.67903389 49.41351577 -21.8125 52.375 C-22.58207031 52.7565625 -23.35164063 53.138125 -24.14453125 53.53125 C-32.21510693 56.86441319 -43.93242656 57.01182674 -52 53.6875 C-57.40420802 50.75850176 -60.92188896 47.26974358 -62.8125 41.375 C-63.99230858 29.37113362 -62.14620776 19.76545177 -54.50390625 10.24609375 C-41.0157897 -4.67494049 -17.92471887 -13.49978827 0 0 Z " fill="#010101" transform="translate(1114.8125,580.625)"/>
<path d="M0 0 C3.3234481 0.43395341 6.40575025 0.53893381 9.75 0.375 C18.7764304 0.34696761 26.67927341 2.92716402 33.5 8.875 C43.89051263 19.21507325 48.07585739 30.47244946 48.25 45.1875 C48.20604806 61.87777059 41.7572036 76.33179103 30.80859375 88.796875 C20.01499613 99.42534108 9.56127923 103.86741415 -5.44921875 103.9609375 C-11.79667501 103.24868168 -15.97440656 100.41385619 -20 95.5625 C-29.71776 78.70013335 -27.15816872 57.6629007 -22.43164062 39.36181641 C-20.07634342 30.9524907 -17.09523806 22.72424505 -14 14.5625 C-14.33 14.2325 -14.66 13.9025 -15 13.5625 C-15.625 10.375 -15.625 10.375 -15 6.5625 C-10.73585987 2.68522742 -5.82780228 -0.84294997 0 0 Z M3.48828125 13.73828125 C-0.11491276 14.20442967 -0.11491276 14.20442967 -1.8203125 16.90625 C-3.28038953 20.4384124 -4.72235074 23.96047416 -6 27.5625 C-6.22961426 28.20316406 -6.45922852 28.84382812 -6.69580078 29.50390625 C-12.27903584 45.56318994 -18.25687329 68.2150015 -11.9921875 84.65234375 C-10.13824815 88.22154195 -7.58111407 90.77194297 -4 92.5625 C3.74760253 93.36954193 9.82972402 90.92691228 16.02734375 86.3046875 C26.93350169 77.16319098 35.88611114 64.35329834 37.375 49.9296875 C37.73077426 38.92292146 35.93337068 30.69498634 28.875 22.125 C23.47666773 16.54021218 18.03290337 13.90427147 10.3125 13.25 C8.04202618 13.46419564 5.76598457 13.6242694 3.48828125 13.73828125 Z " fill="#F2F2F2" transform="translate(1197,537.4375)"/>
<path d="M0 0 C0.88365234 0.00064453 1.76730469 0.00128906 2.67773438 0.00195312 C9.13851417 0.04617139 9.13851417 0.04617139 12.5625 1.1875 C11.71975813 11.72177337 4.24943391 18.60712177 -3.4375 25.1875 C-18.61106083 36.94506874 -36.48643292 45.37039024 -53.4375 54.1875 C-55.50604291 47.32332225 -50.98320314 40.16580605 -47.8359375 34.1015625 C-46.80665004 32.25087322 -45.76562441 30.40664554 -44.7109375 28.5703125 C-43.27415671 26.07255555 -43.27415671 26.07255555 -42.375 22.625 C-41.4375 20.1875 -41.4375 20.1875 -38.8125 18.8125 C-37.636875 18.503125 -37.636875 18.503125 -36.4375 18.1875 C-36.9325 15.7125 -36.9325 15.7125 -37.4375 13.1875 C-39.7475 12.5275 -42.0575 11.8675 -44.4375 11.1875 C-43.4375 9.1875 -43.4375 9.1875 -41.37133789 8.34960938 C-40.02930298 7.94452148 -40.02930298 7.94452148 -38.66015625 7.53125 C-37.67080078 7.23089844 -36.68144531 6.93054688 -35.66210938 6.62109375 C-34.61861328 6.31300781 -33.57511719 6.00492187 -32.5 5.6875 C-31.49130859 5.37941406 -30.48261719 5.07132812 -29.44335938 4.75390625 C-19.5112771 1.77364203 -10.39251079 -0.14857615 0 0 Z " fill="#410C44" transform="translate(820.4375,443.8125)"/>
<path d="M0 0 C0.66 0 1.32 0 2 0 C3.42087252 12.32644599 4.65060086 24.65845102 5.7265625 37.01953125 C5.88062224 38.77870384 6.03470602 40.53787433 6.18881226 42.29704285 C6.5080185 45.94813448 6.82535188 49.59938358 7.14160156 53.25073242 C7.54421724 57.89485266 7.95404856 62.53830652 8.36556435 67.18164539 C8.68509086 70.80101488 8.99952186 74.4208145 9.312603 78.04074669 C9.46145929 79.75226553 9.61212443 81.4636282 9.76475906 83.17481422 C10.62394124 92.83041627 11.16549994 102.29789799 11 112 C4.73 112 -1.54 112 -8 112 C-8.07891477 104.93011773 -7.79607666 97.98670546 -7.23046875 90.94140625 C-7.14975128 89.89460693 -7.06903381 88.84780762 -6.98587036 87.76928711 C-6.72304629 84.36675972 -6.4552391 80.96464381 -6.1875 77.5625 C-5.81815488 72.80224877 -5.45172907 68.04177549 -5.0859375 63.28125 C-4.99377457 62.08520645 -4.90161163 60.8891629 -4.80665588 59.65687561 C-4.20642745 51.82540726 -3.63855109 43.99230147 -3.1015625 36.15625 C-3.03340836 35.16237778 -2.96525421 34.16850555 -2.89503479 33.14451599 C-2.57606546 28.4730248 -2.26191391 23.80124403 -1.9519043 19.12915039 C-1.83907775 17.46239911 -1.72620608 15.79565088 -1.61328125 14.12890625 C-1.56551544 13.38753418 -1.51774963 12.64616211 -1.46853638 11.88232422 C-1.19439493 7.86883269 -0.73285891 3.9557329 0 0 Z " fill="#411445" transform="translate(632,309)"/>
<path d="M0 0 C1.32 0 2.64 0 4 0 C2.62815653 4.06498881 0.77931541 6.67396561 -2.125 9.8125 C-2.84945313 10.60269531 -3.57390625 11.39289062 -4.3203125 12.20703125 C-5.15175781 13.09455078 -5.15175781 13.09455078 -6 14 C-4.99582031 13.95359375 -3.99164062 13.9071875 -2.95703125 13.859375 C7.58886475 13.51981192 18.21909913 13.97795246 27 20.625 C32.20470937 25.80375072 35.24759746 32.08977414 35.5625 39.4375 C35.01138917 49.7200679 30.73327156 57.44665049 24 65 C23.24976563 65.90685547 23.24976563 65.90685547 22.484375 66.83203125 C13.87703005 76.46095502 0.77399941 82.30961558 -11.921875 83.30859375 C-21.75067678 83.72908954 -28.92827843 82.3122376 -36.8125 76.25 C-41.89002651 71.51491133 -44.19306165 66.63816838 -44.5 59.6875 C-44.14582156 50.58005441 -40.65991778 41.39107637 -33.96875 35.0859375 C-32.00752556 33.35260182 -30.02343542 31.66000284 -28 30 C-29.51980469 30.06960938 -29.51980469 30.06960938 -31.0703125 30.140625 C-32.42184532 30.17816758 -33.77341028 30.21456506 -35.125 30.25 C-35.79015625 30.28351562 -36.4553125 30.31703125 -37.140625 30.3515625 C-43.50400398 30.47633464 -46.79732664 27.97081301 -51.375 23.875 C-53.68808452 19.7826197 -53.90575116 15.61035498 -53 11 C-52.01 10.34 -51.02 9.68 -50 9 C-49.92523437 9.81984375 -49.85046875 10.6396875 -49.7734375 11.484375 C-49.04119169 18.1669181 -49.04119169 18.1669181 -45.625 23.75 C-37.36542488 26.59812935 -30.75223765 25.75227363 -22.875 22.0625 C-13.62326752 17.17472066 -6.45590817 10.81198244 -1.3515625 1.65234375 C-0.68253906 0.83443359 -0.68253906 0.83443359 0 0 Z M-30 33 C-37.71616053 43.41985458 -40.11363654 52.01221385 -39 65 C-37.75378849 69.73701988 -35.88606806 72.26803074 -32.125 75.375 C-23.36084457 79.93236082 -13.52035833 80.38713355 -3.93359375 78.34765625 C10.96507129 73.29468834 21.75863765 64.88120578 29 51 C31.59792495 45.21371261 32.12411364 39.46645276 30.16015625 33.41015625 C27.445108 27.33100782 23.97732314 23.0610513 18 20 C12.53281811 18.04600109 7.66208298 17.69270643 1.9375 17.75 C1.16083984 17.74226562 0.38417969 17.73453125 -0.41601562 17.7265625 C-12.28368559 17.76675783 -22.04767317 24.49812213 -30 33 Z " fill="#CCCCCC" transform="translate(1091,557)"/>
<path d="M0 0 C3.3234481 0.43395341 6.40575025 0.53893381 9.75 0.375 C18.7764304 0.34696761 26.67927341 2.92716402 33.5 8.875 C43.89051263 19.21507325 48.07585739 30.47244946 48.25 45.1875 C48.20604806 61.87777059 41.7572036 76.33179103 30.80859375 88.796875 C20.01499613 99.42534108 9.56127923 103.86741415 -5.44921875 103.9609375 C-11.79667501 103.24868168 -15.97440656 100.41385619 -20 95.5625 C-29.71776 78.70013335 -27.15816872 57.6629007 -22.43164062 39.36181641 C-20.07634342 30.9524907 -17.09523806 22.72424505 -14 14.5625 C-14.33 14.2325 -14.66 13.9025 -15 13.5625 C-15.625 10.375 -15.625 10.375 -15 6.5625 C-10.73585987 2.68522742 -5.82780228 -0.84294997 0 0 Z M-4 3.5625 C-4 4.2225 -4 4.8825 -4 5.5625 C-5.1446875 5.748125 -5.1446875 5.748125 -6.3125 5.9375 C-9.20267136 6.44352792 -9.20267136 6.44352792 -12 8.5625 C-11.67 9.5525 -11.34 10.5425 -11 11.5625 C-10.01 11.5625 -9.02 11.5625 -8 11.5625 C-8.37511719 12.32691406 -8.75023437 13.09132813 -9.13671875 13.87890625 C-18.86811368 34.24865231 -27.80470288 61.47840414 -21.75 84.125 C-19.33262786 90.91612917 -15.70519878 95.31394772 -10 99.5625 C-2.4636204 102.07462653 5.14245931 100.81724623 12.37109375 97.88671875 C16.76514176 95.67337213 20.34649757 92.831778 24 89.5625 C24.67804688 88.98886719 25.35609375 88.41523437 26.0546875 87.82421875 C36.99178558 77.88720552 44.18146884 62.24808901 45.03125 47.546875 C44.87977314 33.08083477 41.59029988 22.22874915 31.47265625 11.765625 C21.36194154 2.75702611 8.83783776 3.64913884 -4 3.5625 Z " fill="#080808" transform="translate(1197,537.4375)"/>
<path d="M0 0 C10.89936441 0 10.89936441 0 14.4921875 2.46484375 C20.64105522 8.72521944 20.38730966 17.77359681 20.4375 26 C20.20879656 45.1487152 20.20879656 45.1487152 14.5 51.1875 C11 53 11 53 0 53 C0 35.51 0 18.02 0 0 Z " fill="#440E49" transform="translate(512,311)"/>
<path d="M0 0 C1.17949219 0.19916016 1.17949219 0.19916016 2.3828125 0.40234375 C7.20498606 1.19909597 11.9966716 1.36088887 16.875 1.5625 C17.84953125 1.60568359 18.8240625 1.64886719 19.828125 1.69335938 C22.21862802 1.79882274 24.60922444 1.90094175 27 2 C25.15981679 10.06270155 18.53895618 16.27997881 12 21 C8.74319837 22.85402262 5.41030116 24.45144488 2 26 C1.36320312 26.36738281 0.72640625 26.73476563 0.0703125 27.11328125 C-4.32180211 28.99443222 -9.33458998 28.52945241 -14 28 C-16.85333347 26.81691051 -18.80810012 25.19189988 -21 23 C-21.07258946 20.81360547 -21.08373783 18.62499611 -21.0625 16.4375 C-21.05347656 15.23996094 -21.04445313 14.04242187 -21.03515625 12.80859375 C-21.02355469 11.88175781 -21.01195312 10.95492187 -21 10 C-20.39414063 9.76925781 -19.78828125 9.53851562 -19.1640625 9.30078125 C-8.89430848 5.80228637 -8.89430848 5.80228637 0 0 Z " fill="#030203" transform="translate(1063,555)"/>
<path d="M0 0 C9.38453516 -0.24095428 16.48100812 1.39675217 23.453125 7.92578125 C31.4459079 16.6128867 34.67802803 26.02340791 34.44921875 37.7734375 C33.02462517 53.76855784 23.89028939 67.68245331 12.03515625 78.0859375 C4.23735936 84.22462867 -2.9384934 86.41275888 -12.859375 85.23828125 C-18.05382653 83.16050064 -20.67983887 79.55826073 -22.9453125 74.57421875 C-29.01107691 52.43677086 -20.99476549 23.42959575 -10.80078125 3.58203125 C-8.859375 1.23828125 -8.859375 1.23828125 -5.99609375 0.4140625 C-3.99577446 0.30196491 -1.99653736 0.16637811 0 0 Z M-3.37109375 3.4140625 C-6.97428776 3.88021092 -6.97428776 3.88021092 -8.6796875 6.58203125 C-10.13976453 10.11419365 -11.58172574 13.63625541 -12.859375 17.23828125 C-13.08898926 17.87894531 -13.31860352 18.51960937 -13.55517578 19.1796875 C-19.13841084 35.23897119 -25.11624829 57.89078275 -18.8515625 74.328125 C-16.99762315 77.8973232 -14.44048907 80.44772422 -10.859375 82.23828125 C-3.11177247 83.04532318 2.97034902 80.60269353 9.16796875 75.98046875 C20.07412669 66.83897223 29.02673614 54.02907959 30.515625 39.60546875 C30.87139926 28.59870271 29.07399568 20.37076759 22.015625 11.80078125 C16.61729273 6.21599343 11.17352837 3.58005272 3.453125 2.92578125 C1.18265118 3.13997689 -1.09339043 3.30005065 -3.37109375 3.4140625 Z " fill="#090909" transform="translate(1203.859375,547.76171875)"/>
<path d="M0 0 C-0.845625 0.433125 -1.69125 0.86625 -2.5625 1.3125 C-11.71241537 7.51291324 -15.34028797 20.06649593 -19 30 C-19.99 29.67 -20.98 29.34 -22 29 C-23.5779996 28.79870939 -25.16116861 28.63642933 -26.74609375 28.5 C-27.66583984 28.4175 -28.58558594 28.335 -29.53320312 28.25 C-30.49162109 28.1675 -31.45003906 28.085 -32.4375 28 C-34.33228449 27.8362374 -36.22682957 27.66967517 -38.12109375 27.5 C-38.9608374 27.4278125 -39.80058105 27.355625 -40.66577148 27.28125 C-42.85010778 27.01806044 -44.88191283 26.58573057 -47 26 C-41.60181693 12.78477586 -19.96826067 6.31108653 -8 1 C-7.1227124 0.59773193 -6.2454248 0.19546387 -5.34155273 -0.21899414 C-3 -1 -3 -1 0 0 Z " fill="#450A47" transform="translate(775,456)"/>
<path d="M0 0 C5.94 0 11.88 0 18 0 C18 4.29 18 8.58 18 13 C15.18743719 13.02684312 12.37512759 13.04676188 9.5625 13.0625 C8.76005859 13.07087891 7.95761719 13.07925781 7.13085938 13.08789062 C5.08704779 13.0965143 3.04316098 13.0522815 1 13 C0 12 0 12 -0.09765625 9.27734375 C-0.06510417 6.18489583 -0.03255208 3.09244792 0 0 Z " fill="#030104" transform="translate(886,417)"/>
<path d="M0 0 C0.66 0 1.32 0 2 0 C6.52263822 5.1911113 9.8484367 10.02808822 10 17 C6.91358139 17.3429354 5.44962867 17.31738494 2.875 15.5 C0.46345034 12.28460045 -1.17429139 8.95105426 -2 5 C-1.40256959 1.40256959 -1.40256959 1.40256959 0 0 Z " fill="#F4F4F4" transform="translate(1147,612)"/>
<path d="M0 0 C1.53760842 3.07521683 0.36599236 5.34675118 -0.4375 8.625 C-0.86869141 10.40777344 -0.86869141 10.40777344 -1.30859375 12.2265625 C-1.53675781 13.14179687 -1.76492188 14.05703125 -2 15 C-5.63 13.35 -9.26 11.7 -13 10 C-11.63603413 5.90810238 -9.65151017 5.38452673 -5.9375 3.3125 C-4.83277344 2.68988281 -3.72804688 2.06726563 -2.58984375 1.42578125 C-1.73519531 0.95527344 -0.88054688 0.48476563 0 0 Z " fill="#321433" transform="translate(821,502)"/>
<path d="M0 0 C5.61 0 11.22 0 17 0 C17 1.32 17 2.64 17 4 C11.39 4 5.78 4 0 4 C0 2.68 0 1.36 0 0 Z " fill="#000000" transform="translate(886,333)"/>
<path d="M0 0 C4.29 0 8.58 0 13 0 C10.35065989 2.64934011 8.10515144 4.32794935 4.9375 6.25 C4.05964844 6.79140625 3.18179688 7.3328125 2.27734375 7.890625 C1.52582031 8.25671875 0.77429688 8.6228125 0 9 C-0.66 8.67 -1.32 8.34 -2 8 C-1.34 5.36 -0.68 2.72 0 0 Z " fill="#837886" transform="translate(892,449)"/>
<path d="M0 0 C2.87663888 2.87663888 2.98838225 4.76377237 3.1875 8.8125 C3.15327125 12.51605059 2.3828833 15.54279174 1 19 C0.67 19 0.34 19 0 19 C0 12.73 0 6.46 0 0 Z " fill="#CACACA" transform="translate(1095,538)"/>
<path d="M0 0 C3.96 0 7.92 0 12 0 C11.67 1.98 11.34 3.96 11 6 C7.37 4.35 3.74 2.7 0 1 C0 0.67 0 0.34 0 0 Z " fill="#010001" transform="translate(808,511)"/>
<path d="M0 0 C1.65 0.33 3.3 0.66 5 1 C-3.984375 11.66145833 -3.984375 11.66145833 -8 13 C-6.55218207 9.55571735 -4.72305391 7.63869038 -1.875 5.25 C-1.15054687 4.63640625 -0.42609375 4.0228125 0.3203125 3.390625 C1.15175781 2.70226562 1.15175781 2.70226562 2 2 C1.34 1.34 0.68 0.68 0 0 Z " fill="#989898" transform="translate(1061,585)"/>
<path d="M0 0 C0 1.65 0 3.3 0 5 C-5.94 5.495 -5.94 5.495 -12 6 C-4 0 -4 0 0 0 Z " fill="#7D7080" transform="translate(943,484)"/>
</svg>
